<?xml version="1.0" encoding="utf-8"?>
<!-- Generator: Adobe Illustrator 22.0.0, SVG Export Plug-In . SVG Version: 6.00 Build 0)  -->
<svg version="1.1" id="Layer_1" xmlns="http://www.w3.org/2000/svg" xmlns:xlink="http://www.w3.org/1999/xlink" x="0px" y="0px"
	 viewBox="0 0 1000 1000" style="enable-background:new 0 0 1000 1000;" xml:space="preserve">
<style type="text/css">
	.st0{fill:#1CBBB4;}
	.st1{fill:#FFFFFF;}
	.st2{fill:#D0D1D0;}
	.st3{fill-rule:evenodd;clip-rule:evenodd;fill:#8DC63F;}
</style>
<rect x="-8" y="860.9" class="st0" width="1016.4" height="148.6"/>
<path class="st1" d="M478.9,957.2l-17.5-17.3l17.5-17.3l17.5,17.3L478.9,957.2L478.9,957.2z M497.2,939.1l-17.5-17.3l17.5-17.3
	l17.5,17.3L497.2,939.1L497.2,939.1z M514.7,956.4l-17.5-17.3l17.5-17.3l17.5,17.3L514.7,956.4L514.7,956.4z M528.7,934l-9.2-9.1
	l3.3-3.3l9.2,9.1L528.7,934L528.7,934z M511.4,916.9l-9.2-9.1l3.3-3.3l9.2,9.1L511.4,916.9L511.4,916.9z"/>
<g>
	<path class="st2" d="M441,479.8L441,479.8c-3.5-0.8-4.3-1.3-4.3-2.9c0-2,1.3-2.8,3.4-2.8c2,0,3.7,0.8,4.9,1.8l0.4,0.4l2.1-3.3
		l-0.3-0.3c-1.7-1.4-4.2-2.4-7.1-2.4c-4.3,0-7.3,2.6-7.3,6.6c0,3.4,2,5.5,7.2,6.6h0c3.5,0.8,4.5,1.5,4.5,3c0,1.9-1.5,2.9-3.9,3
		c-2.1,0-4.4-0.9-5.7-2.3l-0.4-0.4l-2.2,3.3l0.3,0.3c2,1.8,4.8,2.8,7.9,2.8c4.7,0,7.9-2.8,7.9-6.9
		C448.4,482.9,446.1,480.8,441,479.8z"/>
	<polygon class="st2" points="476.7,479.6 471.2,470.8 466.7,470.8 474.8,483.7 474.8,492.9 475.3,492.9 478.7,492.9 478.7,483.6 
		486.8,470.8 482.2,470.8 	"/>
	<polygon class="st2" points="403.4,470.4 403.1,470.4 393,492.9 397.2,492.9 403.4,478.6 409.6,492.9 410,492.9 413.8,492.9 
		403.8,470.4 	"/>
	<polygon class="st2" points="597,470.8 591.5,479.6 586.1,470.8 581.5,470.8 589.6,483.7 589.6,492.9 590.1,492.9 593.5,492.9 
		593.5,483.6 601.6,470.8 	"/>
	<polygon class="st2" points="519.7,484.2 507.5,470.4 507.1,470.4 506.6,470.4 506.6,492.9 510.5,492.9 510.5,479.5 522.8,493.3 
		523,493.3 523.1,493.3 523.6,493.3 523.6,470.8 519.7,470.8 	"/>
	<path class="st2" d="M560.9,487.1c-1.3,1.5-3,2.5-5.3,2.5c-4.2,0-7-3.2-7.1-7.7c0-4.6,2.8-7.7,7.1-7.8c2.2,0,3.9,1,5.1,2.3l0.4,0.4
		l2.5-2.9l-0.3-0.3c-2-2.1-4.5-3.2-7.7-3.2c-6.4,0-11,4.9-11,11.5c0,6.5,4.6,11.4,11,11.4c3.1,0,5.8-1.1,7.8-3.3l0.3-0.3l-2.5-3
		L560.9,487.1z"/>
</g>
<polygon class="st3" points="478.9,401.5 496.4,418.8 478.9,436.1 461.4,418.8 478.9,401.5 "/>
<path class="st0" d="M497.2,418l-17.5-17.3l17.5-17.3l17.5,17.3L497.2,418L497.2,418z M514.7,435.3L497.2,418l17.5-17.3l17.5,17.3
	L514.7,435.3L514.7,435.3z M528.7,412.9l-9.2-9.1l3.3-3.3l9.2,9.1L528.7,412.9L528.7,412.9z M511.4,395.8l-9.2-9.1l3.3-3.3l9.2,9.1
	L511.4,395.8L511.4,395.8z"/>
</svg>
