<?xml version="1.0" encoding="utf-8"?>
<!-- Generator: Adobe Illustrator 22.0.0, SVG Export Plug-In . SVG Version: 6.00 Build 0)  -->
<svg version="1.1" id="StoryScript" xmlns="http://www.w3.org/2000/svg" xmlns:xlink="http://www.w3.org/1999/xlink" x="0px"
	 y="0px" viewBox="0 0 1000 1000" style="enable-background:new 0 0 1000 1000;" xml:space="preserve">
<style type="text/css">
	.st0{fill:#A8A8A8;}
	.st1{fill:#1386ED;}
	.st2{fill:#1060A8;}
</style>
<path class="st0" d="M377.8,534.9c-1.5-1.1-3.3-1.7-5.4-1.7s-3.7,0.5-5,1.5s-1.9,2.3-1.9,3.9c0,1.2,0.4,2.2,1.1,2.9s1.9,1.2,3.4,1.5
	l7.6,1.6c6,1.3,9.1,4.6,9.1,9.6c0,3.3-1.2,5.9-3.7,7.9s-5.8,2.9-9.8,2.9c-3.9,0-7.2-0.9-9.9-2.8c-2.7-1.8-4.3-4.4-4.7-7.7l6-1.3
	c0.4,2.2,1.4,3.9,3.1,5c1.6,1.1,3.6,1.7,6.1,1.7c2.3,0,4.1-0.5,5.5-1.5c1.3-1,2-2.3,2-4c0-1.3-0.4-2.4-1.1-3.1
	c-0.8-0.7-2-1.2-3.8-1.6l-7.7-1.6c-5.9-1.4-8.9-4.6-8.9-9.6c0-3.1,1.2-5.6,3.6-7.6c2.4-1.9,5.5-2.9,9.4-2.9c3.6,0,6.5,0.9,9,2.7
	c2.4,1.8,4,4.2,4.6,7.3l-5.6,1.2C380.2,537.5,379.3,536,377.8,534.9L377.8,534.9z M400,555c0,1.6,0.4,2.8,1.2,3.6
	c0.8,0.8,1.8,1.2,3.2,1.2c1.5,0,3-0.5,4.4-1.4l1.7,4.6c-2.2,1.3-4.4,2-6.5,2c-2.9,0-5.2-0.8-6.9-2.5c-1.7-1.6-2.5-4-2.5-7.2v-12.7
	H389v-4.5h5.6V530h5.5v8.1h9v4.5h-9V555H400z M435.9,561.1c-2.7,2.6-6,3.8-9.9,3.8s-7.3-1.3-10-3.8c-2.7-2.6-4.1-5.9-4.1-9.9
	s1.4-7.3,4.1-9.8s6.1-3.8,10-3.8s7.2,1.3,9.9,3.8c2.7,2.5,4,5.8,4,9.8C440,555.3,438.6,558.5,435.9,561.1L435.9,561.1z M432.1,544.8
	c-1.7-1.7-3.7-2.5-6.1-2.5s-4.4,0.8-6.1,2.5s-2.6,3.8-2.6,6.5c0,2.6,0.9,4.8,2.6,6.5s3.8,2.5,6.1,2.5c2.3,0,4.3-0.8,6.1-2.5
	c1.7-1.7,2.6-3.8,2.6-6.5S433.8,546.5,432.1,544.8L432.1,544.8z M463,543.3c-0.3,0-0.8-0.1-1.5-0.1c-3.2,0-5.7,1-7.4,3.1
	c-1.7,2.1-2.5,5-2.5,8.7v9.2h-5.5v-26.1h5.5v5.6c2.4-3.9,5.7-5.9,10-5.9c0.8,0,1.4,0.1,1.8,0.2L463,543.3L463,543.3z M478,573.3
	h-6.1l4.3-9.6l-11.3-25.6h6.1l8.2,18.9l8.4-18.9h6.1L478,573.3L478,573.3z M516.1,534.9c-1.5-1.1-3.3-1.7-5.4-1.7s-3.7,0.5-5,1.5
	s-1.9,2.3-1.9,3.9c0,1.2,0.4,2.2,1.1,2.9s1.9,1.2,3.4,1.5l7.6,1.6c6,1.3,9.1,4.6,9.1,9.6c0,3.3-1.2,5.9-3.7,7.9s-5.8,2.9-9.8,2.9
	c-3.9,0-7.2-0.9-9.9-2.8c-2.7-1.8-4.3-4.4-4.7-7.7l6-1.3c0.4,2.2,1.4,3.9,3.1,5c1.6,1.1,3.6,1.7,6.1,1.7c2.3,0,4.1-0.5,5.5-1.5
	c1.3-1,2-2.3,2-4c0-1.3-0.4-2.4-1.1-3.1c-0.8-0.7-2-1.2-3.8-1.6l-7.7-1.6c-5.9-1.4-8.9-4.6-8.9-9.6c0-3.1,1.2-5.6,3.6-7.6
	c2.4-1.9,5.5-2.9,9.4-2.9c3.6,0,6.5,0.9,9,2.7c2.4,1.8,4,4.2,4.6,7.3l-5.6,1.2C518.5,537.5,517.6,536,516.1,534.9L516.1,534.9z
	 M548.2,543.9c-1.3-0.9-2.9-1.4-4.7-1.4c-2.4,0-4.4,0.8-6,2.5c-1.6,1.6-2.4,3.7-2.4,6.3s0.8,4.8,2.4,6.4c1.6,1.6,3.6,2.4,6.1,2.4
	c3.9,0,6.5-1.8,7.7-5.5l5.1,1.3c-0.7,2.8-2.2,5-4.6,6.7c-2.4,1.7-5.1,2.5-8.1,2.5c-3.8,0-7.1-1.3-9.8-3.9c-2.7-2.6-4-5.9-4-9.9
	s1.3-7.3,4-9.9c2.7-2.6,5.9-3.9,9.8-3.9c3,0,5.7,0.8,8,2.5c2.4,1.7,3.9,3.9,4.7,6.7l-5.3,1.5C550.4,546.3,549.5,544.9,548.2,543.9
	L548.2,543.9z M579.2,543.3c-0.3,0-0.8-0.1-1.5-0.1c-3.2,0-5.7,1-7.4,3.1s-2.5,5-2.5,8.7v9.2h-5.5v-26.1h5.5v5.6
	c2.4-3.9,5.7-5.9,10-5.9c0.8,0,1.4,0.1,1.8,0.2L579.2,543.3L579.2,543.3z M590.1,532.7c-0.7,0.6-1.5,0.9-2.5,0.9s-1.9-0.3-2.5-0.9
	c-0.7-0.6-1-1.4-1-2.4c0-0.9,0.3-1.8,1-2.4c0.7-0.7,1.5-1,2.5-1s1.8,0.3,2.5,1s1,1.5,1,2.4C591.1,531.3,590.8,532.1,590.1,532.7
	L590.1,532.7z M590.4,564.3h-5.5v-26.1h5.5V564.3L590.4,564.3z M623.2,561.2c-2.5,2.6-5.6,3.9-9.1,3.9c-3.9,0-7.1-1.2-9.5-3.7v12
	h-5.5v-35.1h5.5v3c2.4-2.5,5.6-3.7,9.5-3.7c3.5,0,6.6,1.3,9.1,3.9c2.6,2.6,3.8,5.9,3.8,9.9C627,555.3,625.7,558.6,623.2,561.2
	L623.2,561.2z M619.3,544.7c-1.6-1.6-3.7-2.4-6.1-2.4c-2.3,0-4.3,0.8-6,2.5s-2.6,3.8-2.6,6.5c0,2.6,0.9,4.8,2.6,6.5
	c1.7,1.7,3.7,2.5,6,2.5c2.5,0,4.5-0.8,6.1-2.5c1.6-1.6,2.4-3.8,2.4-6.5C621.7,548.5,620.9,546.4,619.3,544.7L619.3,544.7z M640,555
	c0,1.6,0.4,2.8,1.2,3.6s1.8,1.2,3.2,1.2c1.5,0,3-0.5,4.4-1.4l1.7,4.6c-2.2,1.3-4.4,2-6.5,2c-2.9,0-5.2-0.8-6.9-2.5
	c-1.7-1.6-2.5-4-2.5-7.2v-12.7H629v-4.5h5.6V530h5.5v8.1h9v4.5h-9V555H640z"/>
<polygon id="body_2" class="st1" points="555.5,431.9 504.8,454.4 504.8,495.2 541.2,481 "/>
<polygon id="body_1" class="st2" points="504.8,495.2 504.8,454.4 454.1,431.9 468.3,481 "/>
<path id="cap_height" class="st2" d="M523.7,426l-39.5,0.3v7.7c0,0,0,0.4,0,0.6c0,2.9,8.8,5.3,19.7,5.2c10.9-0.1,19.8-2.5,19.8-5.5
	c0-0.2,0-0.6,0-0.6V426z"/>
<path id="cap_top" class="st1" d="M504,420.8c10.9-0.1,19.7,2.3,19.7,5.2c0,3-8.9,5.4-19.8,5.5c-10.9,0.1-19.7-2.3-19.7-5.2
	C484.3,423.3,493.1,420.9,504,420.8L504,420.8z"/>
</svg>
